<?xml version="1.0" standalone="no"?>
<!DOCTYPE svg PUBLIC "-//W3C//DTD SVG 20010904//EN"
 "http://www.w3.org/TR/2001/REC-SVG-20010904/DTD/svg10.dtd">
<svg version="1.0" xmlns="http://www.w3.org/2000/svg"
 width="320.000000pt" height="320.000000pt" viewBox="0 0 320.000000 320.000000"
 preserveAspectRatio="xMidYMid meet">

<g transform="translate(0.000000,320.000000) scale(0.100000,-0.100000)"
fill="#000000" stroke="none">
<path d="M2144 2083 c-467 -472 -833 -846 -814 -832 19 14 224 165 455 335
231 171 431 318 445 327 13 9 41 17 61 17 47 0 72 -29 99 -116 132 -428 -118
-882 -547 -995 -109 -29 -278 -28 -388 1 -44 12 -89 23 -101 26 -12 4 -79 -22
-178 -67 l-158 -73 23 -19 c42 -34 221 -116 311 -141 566 -161 1157 168 1322
735 53 185 56 339 9 564 -45 216 -42 418 8 564 40 114 130 268 279 474 22 31
37 57 32 57 -5 0 -391 -386 -858 -857z"/>
<path d="M1505 2649 c-381 -49 -715 -306 -861 -662 -55 -136 -77 -250 -77
-407 0 -156 16 -243 70 -389 33 -86 37 -106 37 -196 0 -85 -3 -109 -25 -161
-42 -100 -109 -189 -284 -379 -159 -172 -229 -258 -154 -189 19 17 205 183
414 369 209 186 395 353 414 371 l34 32 -51 58 c-112 125 -172 291 -172 474 0
344 216 646 540 754 159 53 345 55 494 5 l60 -20 158 72 c87 40 158 75 158 79
0 9 -97 66 -172 100 -182 82 -389 113 -583 89z"/>
</g>
</svg>
